<?xml version="1.0" encoding="utf-8"?>
<!-- Generator: Adobe Illustrator 16.0.0, SVG Export Plug-In . SVG Version: 6.00 Build 0)  -->
<!DOCTYPE svg PUBLIC "-//W3C//DTD SVG 1.1//EN" "http://www.w3.org/Graphics/SVG/1.1/DTD/svg11.dtd">
<svg version="1.1" id="Ebene_1" xmlns="http://www.w3.org/2000/svg" xmlns:xlink="http://www.w3.org/1999/xlink" x="0px" y="0px"
	 width="336.891px" height="521.781px" viewBox="91.537 104.592 336.891 521.781"
	 enable-background="new 91.537 104.592 336.891 521.781" xml:space="preserve">
<g>
	<path d="M172.592,119.362c1.978,0,3.587,1.609,3.587,3.588v14.706c0,1.978-1.609,3.586-3.587,3.586h-77.07
		c-1.977,0-3.586-1.609-3.586-3.586v-14.707c0-1.978,1.609-3.587,3.586-3.587H172.592 M172.592,118.964h-77.07
		c-2.201,0-3.984,1.784-3.984,3.985v14.707c0,2.201,1.783,3.985,3.984,3.985h77.07c2.201,0,3.985-1.784,3.985-3.985V122.95
		C176.577,120.749,174.793,118.964,172.592,118.964L172.592,118.964z"/>
</g>
<text transform="matrix(1 0 0 1 101.4397 133.8647)" font-family="'Consolas'" font-size="9.9626">Came</text>
<text transform="matrix(1 0 0 1 123.3499 133.8647)" font-family="'Consolas'" font-size="9.9626">r</text>
<text transform="matrix(1 0 0 1 128.7375 133.8647)" font-family="'Consolas'" font-size="9.9626">a::shoot</text>
<path fill="none" stroke="#000000" stroke-width="0.3985" stroke-miterlimit="10" d="M356.847,118.964h-77.07
	c-2.2,0-3.984,1.784-3.984,3.985v14.707c0,2.201,1.784,3.985,3.984,3.985h77.07c2.201,0,3.984-1.784,3.984-3.985V122.95
	C360.831,120.749,359.048,118.964,356.847,118.964z"/>
<text transform="matrix(1 0 0 1 291.9636 133.7944)" font-family="'Consolas'" font-size="9.9626">W</text>
<text transform="matrix(1 0 0 1 297.1516 133.7944)" font-family="'Consolas'" font-size="9.9626">o</text>
<text transform="matrix(1 0 0 1 302.6301 133.7944)" font-family="'Consolas'" font-size="9.9626">r</text>
<text transform="matrix(1 0 0 1 308.2571 133.7944)" font-family="'Consolas'" font-size="9.9626">ld::d</text>
<text transform="matrix(1 0 0 1 335.6448 133.7944)" font-family="'Consolas'" font-size="9.9626">r</text>
<text transform="matrix(1 0 0 1 341.0227 133.7944)" font-family="'Consolas'" font-size="9.9626">a</text>
<text transform="matrix(1 0 0 1 346.3 133.7944)" font-family="'Consolas'" font-size="9.9626">w</text>
<path fill="none" stroke="#000000" stroke-width="0.3985" stroke-miterlimit="10" d="M362.22,161.485h-87.817
	c-2.2,0-3.984,1.784-3.984,3.985v14.708c0,2.201,1.784,3.985,3.984,3.985h87.817c2.201,0,3.984-1.784,3.984-3.985V165.47
	C366.204,163.269,364.421,161.485,362.22,161.485z"/>
<text transform="matrix(1 0 0 1 275.592 176.314)" font-family="'Consolas'" font-size="9.9626">Draw all modules</text>
<path fill="none" stroke="#000000" stroke-width="0.3985" stroke-miterlimit="10" d="M371.515,218.178H265.108
	c-2.2,0-3.984,1.784-3.984,3.985v14.707c0,2.201,1.784,3.985,3.984,3.985h106.407c2.201,0,3.985-1.784,3.985-3.985v-14.707
	C375.5,219.962,373.716,218.178,371.515,218.178z"/>
<text transform="matrix(1 0 0 1 269.3518 233.0073)" font-family="'Consolas'" font-size="9.9626">Use Module::shader</text>
<path fill="none" stroke="#000000" stroke-width="0.3985" stroke-miterlimit="10" d="M361.388,260.699h-86.153
	c-2.2,0-3.984,1.784-3.984,3.985v14.708c0,2.201,1.784,3.985,3.984,3.985h86.153c2.201,0,3.984-1.784,3.984-3.985v-14.708
	C365.372,262.483,363.589,260.699,361.388,260.699z"/>
<text transform="matrix(1 0 0 1 284.7366 274.6499)" font-family="'Consolas'" font-size="9.9626">For each pass</text>
<path fill="none" stroke="#000000" stroke-width="0.3985" stroke-miterlimit="10" d="M386.551,311.723H250.072
	c-2.629,0-4.76,1.784-4.76,3.985v14.707c0,2.201,2.131,3.985,4.76,3.985h136.479c2.629,0,4.761-1.784,4.761-3.985v-14.707
	C391.312,313.507,389.18,311.723,386.551,311.723z"/>
<text transform="matrix(1 0 0 1 251.0002 325.4995)" font-family="'Consolas'" font-size="9.9626">Bind</text>
<text transform="matrix(1 0 0 1 272.9104 325.4995)" font-family="'Consolas'" font-size="9.9626" letter-spacing="1"> </text>
<text transform="matrix(1 0 0 1 281.1575 325.4995)" font-family="'Consolas'" font-size="9.9626">Modul::rende</text>
<text transform="matrix(1 0 0 1 346.8879 325.4995)" font-family="'Consolas'" font-size="9.9626">r</text>
<text transform="matrix(1 0 0 1 352.7629 325.4995)" font-family="'Consolas'" font-size="9.9626">target</text>
<path fill="none" stroke="#000000" stroke-width="0.3985" stroke-miterlimit="10" d="M375.645,354.243H260.979
	c-2.201,0-3.984,1.784-3.984,3.985v14.708c0,2.201,1.783,3.985,3.984,3.985h114.666c2.201,0,3.984-1.784,3.984-3.985v-14.708
	C379.629,356.027,377.846,354.243,375.645,354.243z"/>
<text transform="matrix(1 0 0 1 263.3127 368.1938)" font-family="'Consolas'" font-size="9.9626">Call Module::on_pas</text>
<text transform="matrix(1 0 0 1 367.384 368.1938)" font-family="'Consolas'" font-size="9.9626" letter-spacing="1">s</text>
<path fill="none" stroke="#000000" stroke-width="0.3985" stroke-miterlimit="10" d="M361.681,396.763h-86.738
	c-2.478,0-4.484,1.784-4.484,3.985v14.707c0,2.201,2.008,3.985,4.484,3.985h86.738c2.478,0,4.484-1.784,4.484-3.985v-14.707
	C366.165,398.547,364.157,396.763,361.681,396.763z"/>
<text transform="matrix(1 0 0 1 278.6907 410.7134)" font-family="'Consolas'" font-size="9.9626">Uni</text>
<text transform="matrix(1 0 0 1 295.1228 410.7134)" font-family="'Consolas'" font-size="9.9626">f</text>
<text transform="matrix(1 0 0 1 300.302 410.7134)" font-family="'Consolas'" font-size="9.9626">o</text>
<text transform="matrix(1 0 0 1 305.7786 410.7134)" font-family="'Consolas'" font-size="9.9626">r</text>
<text transform="matrix(1 0 0 1 311.4954 410.7134)" font-family="'Consolas'" font-size="9.9626">m updates</text>
<path fill="none" stroke="#000000" stroke-width="0.3985" stroke-miterlimit="10" d="M367.065,439.285h-97.509
	c-2.386,0-4.32,1.783-4.32,3.984v14.707c0,2.201,1.935,3.984,4.32,3.984h97.509c2.385,0,4.319-1.783,4.319-3.984v-14.707
	C371.385,441.068,369.449,439.285,367.065,439.285z"/>
<text transform="matrix(1 0 0 1 270.6707 454.2231)" font-family="'Consolas'" font-size="9.9626">Draw </text>
<text transform="matrix(1 0 0 1 298.0588 454.2231)" font-family="'Consolas'" font-size="9.9626">vertex b</text>
<text transform="matrix(1 0 0 1 340.3635 454.2231)" font-family="'Consolas'" font-size="9.9626">uf</text>
<text transform="matrix(1 0 0 1 351.3176 454.2231)" font-family="'Consolas'" font-size="9.9626">f</text>
<text transform="matrix(1 0 0 1 356.5071 454.2231)" font-family="'Consolas'" font-size="9.9626">er</text>
<path fill="none" stroke="#000000" stroke-width="0.3985" stroke-miterlimit="10" d="M381.688,481.802H254.933
	c-2.258,0-4.089,1.785-4.089,3.986v14.707c0,2.201,1.831,3.984,4.089,3.984h126.756c2.259,0,4.09-1.783,4.09-3.984v-14.707
	C385.778,483.587,383.947,481.802,381.688,481.802z"/>
<text transform="matrix(1 0 0 1 255.8835 495.7524)" font-family="'Consolas'" font-size="9.9626">Call Module::after_pas</text>
<text transform="matrix(1 0 0 1 376.3879 495.7524)" font-family="'Consolas'" font-size="9.9626" letter-spacing="1">s</text>
<path fill="none" stroke="#000000" stroke-width="0.3985" stroke-miterlimit="10" d="M394.445,297.35H242.177
	c-2.201,0-3.985,1.784-3.985,3.985v213.534c0,2.201,1.784,3.984,3.985,3.984h152.268c2.201,0,3.985-1.783,3.985-3.984V301.335
	C398.431,299.134,396.646,297.35,394.445,297.35z"/>
<path fill="none" stroke="#000000" stroke-width="0.3985" stroke-miterlimit="10" d="M408.818,203.806H227.805
	c-2.201,0-3.985,1.784-3.985,3.985v321.451c0,2.201,1.784,3.984,3.985,3.984h181.014c2.2,0,3.984-1.783,3.984-3.984V207.791
	C412.803,205.59,411.019,203.806,408.818,203.806z"/>
<path fill="none" stroke="#000000" stroke-width="0.3985" stroke-miterlimit="10" d="M410.07,547.001H226.552
	c-2.201,0-3.985,1.783-3.985,3.984v14.707c0,2.201,1.784,3.984,3.985,3.984H410.07c2.201,0,3.985-1.783,3.985-3.984v-14.707
	C414.056,548.787,412.271,547.001,410.07,547.001z"/>
<text transform="matrix(1 0 0 1 227.887 560.8892)" font-family="'Consolas'" font-size="9.9626">Draw vertex buffer (regular pass)</text>
<g>
	<path d="M424.443,104.99c1.978,0,3.587,1.609,3.587,3.587v471.491c0,1.977-1.608,3.584-3.586,3.584H212.18
		c-1.978,0-3.587-1.607-3.587-3.584V108.577c0-1.978,1.609-3.587,3.587-3.587H424.443 M424.443,104.592H212.18
		c-2.201,0-3.985,1.784-3.985,3.985v471.491c0,2.199,1.784,3.982,3.985,3.982h212.264c2.2,0,3.984-1.783,3.984-3.982V108.577
		C428.428,106.376,426.644,104.592,424.443,104.592L424.443,104.592z"/>
</g>
<g>
	<path d="M413.995,604.093c2.492,0,4.52,1.608,4.52,3.586v14.707c0,1.979-2.027,3.588-4.52,3.588H222.626
		c-2.492,0-4.52-1.609-4.52-3.588v-14.707c0-1.978,2.027-3.586,4.52-3.586H413.995 M413.995,603.695H222.626
		c-2.716,0-4.918,1.783-4.918,3.984v14.707c0,2.201,2.202,3.986,4.918,3.986h191.369c2.717,0,4.918-1.785,4.918-3.986v-14.707
		C418.913,605.478,416.712,603.695,413.995,603.695L413.995,603.695z"/>
</g>
<text transform="matrix(1 0 0 1 231.1125 617.6431)" font-family="'Consolas'" font-size="9.9626">Came</text>
<text transform="matrix(1 0 0 1 253.0227 617.6431)" font-family="'Consolas'" font-size="9.9626">r</text>
<text transform="matrix(1 0 0 1 258.4104 617.6431)" font-family="'Consolas'" font-size="9.9626">a::</text>
<text transform="matrix(1 0 0 1 274.8425 617.6431)" font-family="'Consolas'" font-size="9.9626">P</text>
<text transform="matrix(1 0 0 1 279.8313 617.6431)" font-family="'Consolas'" font-size="9.9626">ostProcesso</text>
<text transform="matrix(1 0 0 1 340.0852 617.6431)" font-family="'Consolas'" font-size="9.9626">r</text>
<text transform="matrix(1 0 0 1 345.8616 617.6431)" font-family="'Consolas'" font-size="9.9626">::post_pass</text>
<line fill="none" stroke="#000000" stroke-width="0.797" stroke-miterlimit="10" x1="176.776" y1="130.303" x2="273.001" y2="130.303"/>
<polyline points="275.592,130.303 271.447,128.231 273.001,130.303 271.447,132.375 "/>
<line fill="none" stroke="#000000" stroke-width="0.797" stroke-miterlimit="10" x1="318.312" y1="141.841" x2="318.312" y2="158.695"/>
<polyline points="318.312,161.286 320.384,157.141 318.312,158.695 316.239,157.141 "/>
<path fill="none" stroke="#000000" stroke-width="0.797" stroke-miterlimit="10" d="M366.404,172.823
	c17.454-0.453,31.972,13.329,32.357,28.193"/>
<polyline points="398.828,203.606 400.793,199.409 398.762,201.017 396.649,199.517 "/>
<path fill="none" stroke="#000000" stroke-width="0.797" stroke-miterlimit="10" d="M267.629,172.756
	c-14.864-0.386-29.382,13.396-29.835,30.85"/>
<polyline points="270.219,172.823 266.129,170.644 267.629,172.756 266.021,174.788 "/>
<line fill="none" stroke="#000000" stroke-width="0.797" stroke-miterlimit="10" x1="318.312" y1="533.425" x2="318.312" y2="544.212"/>
<polyline points="318.312,546.802 320.384,542.658 318.312,544.212 316.239,542.658 "/>
<line fill="none" stroke="#000000" stroke-width="0.797" stroke-miterlimit="10" x1="318.312" y1="241.055" x2="318.312" y2="257.909"/>
<polyline points="318.312,260.499 320.384,256.355 318.312,257.909 316.239,256.355 "/>
<path fill="none" stroke="#000000" stroke-width="0.797" stroke-miterlimit="10" d="M365.572,272.037
	c12.168,1.723,20.607,12.946,19.247,22.548"/>
<polyline points="384.455,297.151 387.09,293.337 384.819,294.585 382.985,292.756 "/>
<path fill="none" stroke="#000000" stroke-width="0.797" stroke-miterlimit="10" d="M268.485,272.4
	c-9.603,1.36-18.042,12.583-16.318,24.75"/>
<polyline points="271.05,272.037 266.656,270.566 268.485,272.4 267.237,274.67 "/>
<line fill="none" stroke="#000000" stroke-width="0.797" stroke-miterlimit="10" x1="318.312" y1="334.6" x2="318.312" y2="351.454"/>
<polyline points="318.312,354.044 320.384,349.899 318.312,351.454 316.239,349.899 "/>
<line fill="none" stroke="#000000" stroke-width="0.797" stroke-miterlimit="10" x1="318.312" y1="377.12" x2="318.312" y2="393.974"/>
<polyline points="318.312,396.564 320.384,392.419 318.312,393.974 316.239,392.419 "/>
<line fill="none" stroke="#000000" stroke-width="0.797" stroke-miterlimit="10" x1="318.312" y1="419.64" x2="318.312" y2="436.494"/>
<polyline points="318.312,439.083 320.384,434.941 318.312,436.494 316.239,434.941 "/>
<line fill="none" stroke="#000000" stroke-width="0.797" stroke-miterlimit="10" x1="318.312" y1="462.162" x2="318.312" y2="479.013"/>
<polyline points="318.312,481.603 320.384,477.46 318.312,479.013 316.239,477.46 "/>
<line fill="none" stroke="#000000" stroke-width="0.797" stroke-miterlimit="10" x1="318.312" y1="584.25" x2="318.312" y2="600.906"/>
<polyline points="318.312,603.496 320.384,599.351 318.312,600.906 316.239,599.351 "/>
</svg>
