<?xml version="1.0" encoding="utf-8"?>
<!-- Generator: Adobe Illustrator 16.0.0, SVG Export Plug-In . SVG Version: 6.00 Build 0)  -->
<!DOCTYPE svg PUBLIC "-//W3C//DTD SVG 1.1//EN" "http://www.w3.org/Graphics/SVG/1.1/DTD/svg11.dtd">
<svg version="1.1" id="Ebene_1" xmlns="http://www.w3.org/2000/svg" xmlns:xlink="http://www.w3.org/1999/xlink" x="0px" y="0px"
	 width="595.276px" height="841.89px" viewBox="0 0 595.276 841.89" enable-background="new 0 0 595.276 841.89"
	 xml:space="preserve">
<path fill="none" stroke="#000000" stroke-width="0.3985" stroke-miterlimit="10" d="M172.592,118.964h-77.07
	c-2.201,0-3.985,1.784-3.985,3.985v14.707c0,2.201,1.784,3.985,3.985,3.985h77.07c2.201,0,3.985-1.784,3.985-3.985V122.95
	C176.577,120.749,174.793,118.964,172.592,118.964z"/>
<text transform="matrix(1 0 0 1 101.4399 133.8652)"><tspan x="0" y="0" font-family="'Consolas'" font-size="9.9626">Came</tspan><tspan x="21.91" y="0" font-family="'Consolas'" font-size="9.9626">r</tspan><tspan x="27.298" y="0" font-family="'Consolas'" font-size="9.9626">a::shoot</tspan></text>
<path fill="none" stroke="#000000" stroke-width="0.3985" stroke-miterlimit="10" d="M356.847,118.964h-77.07
	c-2.201,0-3.985,1.784-3.985,3.985v14.707c0,2.201,1.784,3.985,3.985,3.985h77.07c2.201,0,3.985-1.784,3.985-3.985V122.95
	C360.832,120.749,359.048,118.964,356.847,118.964z"/>
<text transform="matrix(1 0 0 1 291.9639 133.7954)"><tspan x="0" y="0" font-family="'Consolas'" font-size="9.9626">W</tspan><tspan x="5.188" y="0" font-family="'Consolas'" font-size="9.9626">o</tspan><tspan x="10.666" y="0" font-family="'Consolas'" font-size="9.9626">r</tspan><tspan x="16.293" y="0" font-family="'Consolas'" font-size="9.9626">ld::d</tspan><tspan x="43.681" y="0" font-family="'Consolas'" font-size="9.9626">r</tspan><tspan x="49.059" y="0" font-family="'Consolas'" font-size="9.9626">a</tspan><tspan x="54.337" y="0" font-family="'Consolas'" font-size="9.9626">w</tspan></text>
<path fill="none" stroke="#000000" stroke-width="0.3985" stroke-miterlimit="10" d="M362.22,161.485h-87.817
	c-2.201,0-3.985,1.784-3.985,3.985v14.708c0,2.201,1.784,3.985,3.985,3.985h87.817c2.201,0,3.985-1.784,3.985-3.985V165.47
	C366.205,163.269,364.421,161.485,362.22,161.485z"/>
<text transform="matrix(1 0 0 1 275.5923 176.3149)" font-family="'Consolas'" font-size="9.9626">Draw all modules</text>
<path fill="none" stroke="#000000" stroke-width="0.3985" stroke-miterlimit="10" d="M371.515,218.178H265.108
	c-2.201,0-3.985,1.784-3.985,3.985v14.707c0,2.201,1.784,3.985,3.985,3.985h106.407c2.201,0,3.985-1.784,3.985-3.985v-14.707
	C375.5,219.962,373.716,218.178,371.515,218.178z"/>
<text transform="matrix(1 0 0 1 269.3521 233.0073)" font-family="'Consolas'" font-size="9.9626">Use Module::shader</text>
<path fill="none" stroke="#000000" stroke-width="0.3985" stroke-miterlimit="10" d="M361.388,260.699h-86.153
	c-2.201,0-3.985,1.784-3.985,3.985v14.708c0,2.201,1.784,3.985,3.985,3.985h86.153c2.201,0,3.985-1.784,3.985-3.985v-14.708
	C365.373,262.483,363.589,260.699,361.388,260.699z"/>
<text transform="matrix(1 0 0 1 284.7368 274.6499)" font-family="'Consolas'" font-size="9.9626">For each pass</text>
<path fill="none" stroke="#000000" stroke-width="0.3985" stroke-miterlimit="10" d="M386.551,311.723H250.072
	c-2.629,0-4.76,1.784-4.76,3.985v14.707c0,2.201,2.131,3.985,4.76,3.985h136.479c2.629,0,4.761-1.784,4.761-3.985v-14.707
	C391.312,313.507,389.18,311.723,386.551,311.723z"/>
<text transform="matrix(1 0 0 1 251.0005 325.5)"><tspan x="0" y="0" font-family="'Consolas'" font-size="9.9626">Bind</tspan><tspan x="21.91" y="0" font-family="'Consolas'" font-size="9.9626" letter-spacing="2"> </tspan><tspan x="30.157" y="0" font-family="'Consolas'" font-size="9.9626">Modul::rende</tspan><tspan x="95.887" y="0" font-family="'Consolas'" font-size="9.9626">r</tspan><tspan x="101.763" y="0" font-family="'Consolas'" font-size="9.9626">target</tspan></text>
<path fill="none" stroke="#000000" stroke-width="0.3985" stroke-miterlimit="10" d="M375.645,354.243H260.979
	c-2.201,0-3.985,1.784-3.985,3.985v14.708c0,2.201,1.784,3.985,3.985,3.985h114.666c2.201,0,3.984-1.784,3.984-3.985v-14.708
	C379.629,356.027,377.846,354.243,375.645,354.243z"/>
<text transform="matrix(1 0 0 1 263.313 368.1943)"><tspan x="0" y="0" font-family="'Consolas'" font-size="9.9626">Call Module::on_pas</tspan><tspan x="104.072" y="0" font-family="'Consolas'" font-size="9.9626" letter-spacing="2">s</tspan></text>
<path fill="none" stroke="#000000" stroke-width="0.3985" stroke-miterlimit="10" d="M361.681,396.763h-86.738
	c-2.478,0-4.485,1.784-4.485,3.985v14.707c0,2.201,2.008,3.985,4.485,3.985h86.738c2.478,0,4.485-1.784,4.485-3.985v-14.707
	C366.166,398.547,364.158,396.763,361.681,396.763z"/>
<text transform="matrix(1 0 0 1 278.6909 410.7134)"><tspan x="0" y="0" font-family="'Consolas'" font-size="9.9626">Uni</tspan><tspan x="16.432" y="0" font-family="'Consolas'" font-size="9.9626">f</tspan><tspan x="21.611" y="0" font-family="'Consolas'" font-size="9.9626">o</tspan><tspan x="27.088" y="0" font-family="'Consolas'" font-size="9.9626">r</tspan><tspan x="32.805" y="0" font-family="'Consolas'" font-size="9.9626">m updates</tspan></text>
<path fill="none" stroke="#000000" stroke-width="0.3985" stroke-miterlimit="10" d="M367.065,439.284h-97.509
	c-2.386,0-4.32,1.784-4.32,3.985v14.707c0,2.201,1.934,3.985,4.32,3.985h97.509c2.385,0,4.319-1.784,4.319-3.985v-14.707
	C371.385,441.068,369.45,439.284,367.065,439.284z"/>
<text transform="matrix(1 0 0 1 270.6709 454.2241)"><tspan x="0" y="0" font-family="'Consolas'" font-size="9.9626">Draw </tspan><tspan x="27.388" y="0" font-family="'Consolas'" font-size="9.9626">vertex b</tspan><tspan x="69.693" y="0" font-family="'Consolas'" font-size="9.9626">uf</tspan><tspan x="80.647" y="0" font-family="'Consolas'" font-size="9.9626">f</tspan><tspan x="85.836" y="0" font-family="'Consolas'" font-size="9.9626">er</tspan></text>
<path fill="none" stroke="#000000" stroke-width="0.3985" stroke-miterlimit="10" d="M381.688,481.803H254.933
	c-2.258,0-4.089,1.784-4.089,3.985v14.708c0,2.2,1.831,3.984,4.089,3.984h126.756c2.259,0,4.09-1.784,4.09-3.984v-14.708
	C385.778,483.587,383.947,481.803,381.688,481.803z"/>
<text transform="matrix(1 0 0 1 255.8838 495.7534)"><tspan x="0" y="0" font-family="'Consolas'" font-size="9.9626">Call Module::after_pas</tspan><tspan x="120.505" y="0" font-family="'Consolas'" font-size="9.9626" letter-spacing="2">s</tspan></text>
<path fill="none" stroke="#000000" stroke-width="0.3985" stroke-miterlimit="10" d="M394.445,297.35H242.177
	c-2.201,0-3.985,1.784-3.985,3.985v213.533c0,2.201,1.784,3.985,3.985,3.985h152.268c2.201,0,3.985-1.784,3.985-3.985V301.335
	C398.431,299.134,396.646,297.35,394.445,297.35z"/>
<path fill="none" stroke="#000000" stroke-width="0.3985" stroke-miterlimit="10" d="M408.818,203.806H227.805
	c-2.201,0-3.985,1.784-3.985,3.985v321.451c0,2.2,1.784,3.984,3.985,3.984h181.014c2.2,0,3.984-1.784,3.984-3.984V207.791
	C412.803,205.59,411.019,203.806,408.818,203.806z"/>
<path fill="none" stroke="#000000" stroke-width="0.3985" stroke-miterlimit="10" d="M410.07,547.001H226.552
	c-2.201,0-3.985,1.784-3.985,3.985v14.707c0,2.201,1.784,3.985,3.985,3.985H410.07c2.201,0,3.985-1.784,3.985-3.985v-14.707
	C414.056,548.786,412.271,547.001,410.07,547.001z"/>
<text transform="matrix(1 0 0 1 227.8872 560.8901)" font-family="'Consolas'" font-size="9.9626">Draw vertex buffer (regular pass)</text>
<path fill="none" stroke="#000000" stroke-width="0.3985" stroke-miterlimit="10" d="M424.443,104.592H212.18
	c-2.201,0-3.985,1.784-3.985,3.985v471.49c0,2.2,1.784,3.984,3.985,3.984h212.264c2.2,0,3.984-1.784,3.984-3.984v-471.49
	C428.428,106.376,426.644,104.592,424.443,104.592z"/>
<path fill="none" stroke="#000000" stroke-width="0.3985" stroke-miterlimit="10" d="M413.996,603.695h-191.37
	c-2.716,0-4.918,1.784-4.918,3.985v14.707c0,2.201,2.202,3.985,4.918,3.985h191.37c2.716,0,4.918-1.784,4.918-3.985V607.68
	C418.914,605.479,416.712,603.695,413.996,603.695z"/>
<text transform="matrix(1 0 0 1 231.1128 617.6431)"><tspan x="0" y="0" font-family="'Consolas'" font-size="9.9626">Came</tspan><tspan x="21.91" y="0" font-family="'Consolas'" font-size="9.9626">r</tspan><tspan x="27.298" y="0" font-family="'Consolas'" font-size="9.9626">a::</tspan><tspan x="43.73" y="0" font-family="'Consolas'" font-size="9.9626">P</tspan><tspan x="48.719" y="0" font-family="'Consolas'" font-size="9.9626">ostProcesso</tspan><tspan x="108.972" y="0" font-family="'Consolas'" font-size="9.9626">r</tspan><tspan x="114.749" y="0" font-family="'Consolas'" font-size="9.9626">::post_pass</tspan></text>
<line fill="none" stroke="#000000" stroke-width="0.797" stroke-miterlimit="10" x1="176.776" y1="130.303" x2="273.001" y2="130.303"/>
<polyline points="275.592,130.303 271.447,128.231 273.001,130.303 271.447,132.375 "/>
<line fill="none" stroke="#000000" stroke-width="0.797" stroke-miterlimit="10" x1="318.312" y1="141.841" x2="318.312" y2="158.695"/>
<polyline points="318.312,161.286 320.384,157.141 318.312,158.695 316.239,157.141 "/>
<path fill="none" stroke="#000000" stroke-width="0.797" stroke-miterlimit="10" d="M366.404,172.823
	c17.454-0.453,31.972,13.329,32.357,28.193"/>
<polyline points="398.829,203.606 400.793,199.409 398.762,201.017 396.649,199.517 "/>
<path fill="none" stroke="#000000" stroke-width="0.797" stroke-miterlimit="10" d="M267.629,172.756
	c-14.864-0.386-29.382,13.396-29.835,30.85"/>
<polyline points="270.219,172.823 266.129,170.644 267.629,172.756 266.021,174.788 "/>
<line fill="none" stroke="#000000" stroke-width="0.797" stroke-miterlimit="10" x1="318.312" y1="533.425" x2="318.312" y2="544.212"/>
<polyline points="318.312,546.802 320.384,542.658 318.312,544.212 316.239,542.658 "/>
<line fill="none" stroke="#000000" stroke-width="0.797" stroke-miterlimit="10" x1="318.312" y1="241.055" x2="318.312" y2="257.909"/>
<polyline points="318.312,260.499 320.384,256.355 318.312,257.909 316.239,256.355 "/>
<path fill="none" stroke="#000000" stroke-width="0.797" stroke-miterlimit="10" d="M365.572,272.037
	c12.168,1.723,20.607,12.946,19.247,22.548"/>
<polyline points="384.456,297.151 387.09,293.337 384.819,294.585 382.985,292.756 "/>
<path fill="none" stroke="#000000" stroke-width="0.797" stroke-miterlimit="10" d="M268.485,272.4
	c-9.603,1.36-18.042,12.583-16.319,24.75"/>
<polyline points="271.05,272.037 266.656,270.566 268.485,272.4 267.237,274.67 "/>
<line fill="none" stroke="#000000" stroke-width="0.797" stroke-miterlimit="10" x1="318.312" y1="334.6" x2="318.312" y2="351.454"/>
<polyline points="318.312,354.044 320.384,349.899 318.312,351.454 316.239,349.899 "/>
<line fill="none" stroke="#000000" stroke-width="0.797" stroke-miterlimit="10" x1="318.312" y1="377.12" x2="318.312" y2="393.974"/>
<polyline points="318.312,396.564 320.384,392.419 318.312,393.974 316.239,392.419 "/>
<line fill="none" stroke="#000000" stroke-width="0.797" stroke-miterlimit="10" x1="318.312" y1="419.64" x2="318.312" y2="436.494"/>
<polyline points="318.312,439.084 320.384,434.94 318.312,436.494 316.239,434.94 "/>
<line fill="none" stroke="#000000" stroke-width="0.797" stroke-miterlimit="10" x1="318.312" y1="462.161" x2="318.312" y2="479.014"/>
<polyline points="318.312,481.604 320.384,477.46 318.312,479.014 316.239,477.46 "/>
<line fill="none" stroke="#000000" stroke-width="0.797" stroke-miterlimit="10" x1="318.312" y1="584.25" x2="318.312" y2="600.906"/>
<polyline points="318.312,603.496 320.384,599.351 318.312,600.906 316.239,599.351 "/>
</svg>
